<?xml version="1.0" encoding="UTF-8" standalone="no"?>
<svg xmlns="http://www.w3.org/2000/svg" width="44" height="44" baseProfile="tiny" version="1.1" xmlns:xlink="http://www.w3.org/1999/xlink" viewBox="0 0 44 44">
 <g id="layer1" transform="translate(0,-4)">
  <rect id="rect3602" height="30" width="44" y="11.125" x="0" fill="#000080"/>
  <rect id="rect3625" height="10" width="20" y="11.125" x="0" fill="#FFF"/>
  <rect id="rect3629" height="10" width="20" y="21.125" x="0" fill="#00c000"/>
  <rect id="rect3631" height="10" width="20" y="31.125" x="0" fill="#c00000"/>
  <rect id="rect3637" opacity="0" transform="translate(0,4)" height="25" width="8.75" y="8" x="20.875"/>
  <rect id="rect3639" opacity="0" height="28" width="7.625" y="11.875" x="20.75"/>
  <rect id="rect3631-7-9-3" height="1" width="5" y="14.009" x="1.0342" fill="#c0c000"/>
  <rect id="rect3631-7-9-3-8" height="5" width="1" y="12.009" x="3.0342" fill="#c0c000"/>
  <path id="rect3631-7-9-7" fill="#F00" d="m42.51,11.13l-18,10.47,2.219,2.375,17.25-10.03v-2.813h-1.469z"/>
  <path id="rect3631-7-6-9-7" fill="#FFF" d="m41.44,11.13l-16.22,9.438,0.375,0.4063,16.88-9.844h-1.031z"/>
  <path id="rect3631-7-6-9-4-3" fill="#FFF" d="m43.98,13.94l-16.19,9.406,0.375,0.4063,15.81-9.219v-0.5938z"/>
  <rect id="rect4281" opacity="0" ry="1.7668" transform="translate(0,4)" width="18.185" y="4.0103" x="26.976" height="3.5336"/>
  <path id="rect3631-7-9-7-2" fill="#F00" d="m26.54,28.09l-2.188,2.375,18.44,10.72h1.188v-2.969l-17.44-10.13z"/>
  <path id="rect3631-7-6-9-7-0" fill="#FFF" d="m25.41,31.09l-0.375,0.4063,16.69,9.688h1.031l-17.34-10.09z"/>
  <path id="rect3631-7-6-9-4-3-1" fill="#FFF" d="m28.01,28.31l-0.375,0.4063,16.34,9.5v-0.625l-15.97-9.281z"/>
  <rect id="rect3631-7" height="30" width="5" y="11.071" x="19.951" fill="#F00"/>
  <rect id="rect3631-7-6" height="30" width="1" y="11.133" x="24.944" fill="#FFF"/>
  <rect id="rect3631-7-9" height="4" width="19.08" y="23.948" x="24.897" fill="#F00"/>
  <rect id="rect3631-7-6-9" height="1" width="18" y="22.934" x="25.91" fill="#FFF"/>
  <rect id="rect3631-7-6-9-4" height="1" width="18" y="27.944" x="25.909" fill="#FFF"/>
  <rect id="rect5317" opacity="0" transform="translate(0,4)" height="4.4089" width="29.86" y="2.2158" x="21.243"/>
  <rect id="rect5324" opacity="0" transform="translate(0,4)" height="5.1103" width="20.642" y="2.0154" x="32.766"/>
  <rect id="rect5350" opacity="0" height="37.125" width="10.521" y="8.5705" x="43.888"/>
 </g>
</svg>